<?xml version="1.0" encoding="utf-8"?>
<!-- Generator: Adobe Illustrator 24.0.1, SVG Export Plug-In . SVG Version: 6.00 Build 0)  -->
<svg version="1.1" id="Layer_1" xmlns="http://www.w3.org/2000/svg" xmlns:xlink="http://www.w3.org/1999/xlink" x="0px" y="0px"
	 viewBox="0 0 1945.3 1945.3" style="enable-background:new 0 0 1945.3 1945.3;" xml:space="preserve">
<style type="text/css">
	.st0{fill:#00FFFF;}
</style>
<title>icons-svg</title>
<circle class="st0" cx="972.7" cy="972.7" r="972.7"/>
<path d="M268.1,607.9c2-7.4,3.8-14.9,6.2-22.2c16.5-50.2,63.3-84.2,117.4-84.4c85.8-0.4,171.5-0.1,257.3-0.1
	c296.9,0,593.9,0,890.8,0c62.4,0,110.3,35,125.7,91.5c3.1,11.9,4.6,24.2,4.4,36.5c-0.1,243.1-0.1,486.2-0.1,729.4
	c0,75.3-53.1,128.1-128.6,128.1c-380.4,0.1-760.9,0.1-1141.3,0c-68.6,0-113.2-35.1-129.8-101.8c-0.6-1.7-1.2-3.4-2-5L268.1,607.9
	L268.1,607.9z M413.3,584c1.1,5.2,4.9,7.2,7.7,10c170.3,170.9,340.7,341.8,511.1,512.7c23.4,23.5,50.5,23.3,74.3-0.6
	c170.4-170.9,340.8-341.8,511.1-512.8c2.6-2.7,7-4.4,6.7-9.4L413.3,584z M411.6,1400.2l2.2,3.1h1111.7c-0.7-1.2-1.6-2.4-2.4-3.5
	c-113-113.5-226.1-226.9-339-340.4c-6-6-9.2-6-15.1,0c-34.5,35.2-69.5,69.9-104.2,104.8c-55.8,56-135.6,56-191.3,0
	c-34.1-34.3-68.5-68.3-102.2-103c-7.5-7.7-11.5-7.8-19.1,0c-46.7,47.5-93.7,94.7-141,141.6C544.7,1268.8,478.2,1334.6,411.6,1400.2
	L411.6,1400.2z M350.9,1346.8c3-2.4,4.1-3.1,5.1-4.1c113.4-113.7,226.8-227.3,340.3-340.9c7.9-7.9,4.2-11.3-1.5-17
	C583.5,873.4,472.3,761.9,361.2,650.5c-2.9-2.9-4.9-7.8-10.4-7.5L350.9,1346.8L350.9,1346.8z M1587,640.9c-4.7,4.4-8,7.3-11.1,10.4
	c-110.5,110.8-221,221.5-331.5,332.1c-8.7,8.7-8.2,12.8,0.2,21.1c111.1,110.8,221.9,221.8,332.5,333.1c2.7,2.7,4.7,6.6,9.9,7.5
	V640.9z"/>
</svg>
