<?xml version="1.0" encoding="utf-8"?>
<!-- Generator: Adobe Illustrator 24.0.1, SVG Export Plug-In . SVG Version: 6.00 Build 0)  -->
<svg version="1.1" id="Layer_1" xmlns="http://www.w3.org/2000/svg" xmlns:xlink="http://www.w3.org/1999/xlink" x="0px" y="0px"
	 viewBox="0 0 1945.3 1945.3" style="enable-background:new 0 0 1945.3 1945.3;" xml:space="preserve">
<style type="text/css">
	.st0{fill:#00FFFF;}
</style>
<title>insta</title>
<circle class="st0" cx="972.7" cy="972.7" r="972.7"/>
<path d="M1135.3,1547.2H805.2c-6.5-2.5-13.4-1.5-20.1-1.7c-43.6-1.2-87.1-2.9-129.7-13.2c-90.8-21.9-158.3-73.4-198.5-158.4
	c-24.9-52.7-31.3-109.3-33.2-166.8c-3.9-118.2-2.6-236.5-1.6-354.7c0.5-56.7,0.7-113.7,14.4-169.3c24-96.9,80.5-166.4,173.8-204.3
	c50.1-20.3,103-25.1,156.4-26.8c111.4-3.6,222.9-2.5,334.3-1.6c58.5,0.5,117.3-0.1,174.9,12.5c106.4,23.2,180.9,84.1,218.3,187.6
	c18,49.7,22.3,101.7,22.4,153.9c0.4,126.5,0.4,252.9,0,379.4c-0.1,36-2.1,72.1-8.5,107.7c-12.9,72.4-44.5,134.5-101.9,181.8
	c-56,46.2-122.2,64.4-193.1,69.7C1187.3,1545,1161.1,1543.8,1135.3,1547.2z M970.3,1448.5c28.9,0,57.9,0.3,86.8-0.1
	c62.5-0.8,125.2,1.3,187.1-8.7c84.1-13.6,139.9-60.6,162.5-144.1c9.2-34,10.3-69.1,11.5-104.1c3.3-101.8,2.4-203.6,1.6-305.4
	c-0.4-53.2-0.2-106.5-7.9-159.3c-12.8-87.9-67-146.5-153.2-166c-38.3-8.7-77.3-9.3-116.1-10c-102.9-2-205.7-1.8-308.6-0.6
	c-47.8,0.6-95.7,0.5-143.1,8.8c-83.3,14.7-139.1,67.7-158.2,149.9c-8.4,36.1-9.2,72.9-10.2,109.6c-2.5,88.6-2.3,177.2-1.5,265.8
	c0.6,61.4-0.9,123,7.8,184c9,62.6,36.7,113.8,93,146.3c34.4,19.8,72.6,27.2,111.8,29.7C812.3,1449.5,891.3,1448.5,970.3,1448.5
	L970.3,1448.5z"/>
<path d="M688.2,998.5c0-155.5,126.9-282.1,282.3-281.7c155.4,0.1,281.3,126,281.5,281.3c0.6,155.4-126,282.3-281.6,282.4
	S688.2,1154.1,688.2,998.5z M970.2,1181.2c100.9,0,182.6-81.8,182.6-182.6c0-100.9-81.8-182.6-182.6-182.6
	c-100.9,0-182.6,81.8-182.6,182.6c0,0.1,0,0.2,0,0.3c-0.2,100.6,81.2,182.2,181.8,182.4C969.6,1181.2,969.8,1181.2,970.2,1181.2
	L970.2,1181.2z"/>
<path d="M1264.7,640c36.8,0.8,65,30.5,64,67.6c-1,36.1-30.6,64.3-67.1,63.7c-36.2-0.6-65-31-64.2-67.8
	C1198.3,667.6,1228.3,639.3,1264.7,640z"/>
</svg>
