<?xml version="1.0" encoding="utf-8"?>
<!-- Generator: Adobe Illustrator 24.0.1, SVG Export Plug-In . SVG Version: 6.00 Build 0)  -->
<svg version="1.1" id="Layer_1" xmlns="http://www.w3.org/2000/svg" xmlns:xlink="http://www.w3.org/1999/xlink" x="0px" y="0px"
	 viewBox="0 0 1945.3 1945.3" style="enable-background:new 0 0 1945.3 1945.3;" xml:space="preserve">
<style type="text/css">
	.st0{fill:#00FFFF;}
</style>
<title>linkedin</title>
<circle class="st0" cx="972.7" cy="972.7" r="972.7"/>
<path d="M1015.3,850.7c22.1-38.3,53.3-66.7,92.5-86.6c50.2-25.4,103.6-29.6,158.3-24.5c42.3,4,82.8,14.2,118.7,38.1
	c50.3,33.5,75.2,83.5,89,140.2c12.6,51.8,15.1,104.6,15.2,157.5c0.3,125.3,0,250.6,0.4,375.9c0,11.1-3.4,13.5-13.9,13.4
	c-64.6-0.5-129.2-0.6-193.8,0.1c-12.2,0.1-13.9-3.9-13.9-14.7c0.4-109.7,0.4-219.4,0.2-329.1c0-33.4-0.4-66.7-7-99.7
	c-14.6-72.5-61.2-97.4-128.9-89.4c-61.7,7.3-95.1,43.5-105.6,110.1c-3.8,24.5-5.2,49.1-5.2,73.8c0.1,112.3-0.1,224.6,0.3,336.9
	c0,10.7-2.7,13.7-13.6,13.7c-65-0.5-130.1-0.5-195.1,0c-10.4,0.1-12.9-2.9-12.9-13c0.3-228.5,0.3-457,0.1-685.4
	c0-9.4,1.3-13.7,12.4-13.6c62.4,0.5,124.9,0.5,187.3,0.1c9.6-0.1,12.8,2.5,12.6,12.4c-0.6,27.6-0.2,55.3-0.2,82.9L1015.3,850.7z"/>
<path d="M440.9,1110.3c0-114,0.1-228-0.2-342c0-10.6,2.5-13.9,13.5-13.8c65,0.5,130,0.5,195.1,0c10.3-0.1,13,2.9,13,13.1
	c-0.3,228.4-0.3,456.9,0,685.3c0,10.7-2.7,13.8-13.6,13.7c-65-0.5-130-0.5-195.1,0c-10.3,0.1-12.9-2.8-12.9-13
	C441,1339.2,440.9,1224.8,440.9,1110.3z"/>
<path d="M678.9,528.1c0.4,70.6-56.9,129.2-126.8,129.6c-70.3,0.4-128.8-58.3-128.9-129.1c0-69.7,57.2-127.4,127.1-128
	C620.8,399.9,678.5,457.2,678.9,528.1z"/>
</svg>
