<?xml version="1.0" encoding="utf-8"?>
<!-- Generator: Adobe Illustrator 24.0.1, SVG Export Plug-In . SVG Version: 6.00 Build 0)  -->
<svg version="1.1" id="Layer_1" xmlns="http://www.w3.org/2000/svg" xmlns:xlink="http://www.w3.org/1999/xlink" x="0px" y="0px"
	 viewBox="0 0 1945.3 1945.3" style="enable-background:new 0 0 1945.3 1945.3;" xml:space="preserve">
<style type="text/css">
	.st0{fill:#00FFFF;}
</style>
<title>whats</title>
<circle class="st0" cx="972.7" cy="972.7" r="972.7"/>
<path d="M1025.7,1618.6c-114.3-0.7-215.7-25.4-310.9-74.9c-7.5-3.9-14-4.8-22.3-2.6c-107.1,28.4-214.3,56.5-321.6,84.4
	c-4.8,1.3-10.7,5.2-14.4,2c-4.1-3.6,0.6-9.4,1.8-14c28.4-104.7,57.1-209.4,86-314c2.3-8.3,1.5-14.8-2.5-22.2
	c-177.2-322.8-59.2-725.4,264.5-900.4c124-67.1,256.8-92.1,396.8-73.7c271.1,35.5,489.3,228.7,556.5,491.4
	c92.1,360.2-132.8,726.2-496.6,808.3C1118,1612.8,1071.9,1618.1,1025.7,1618.6z M512.6,1472.5c4.1-0.8,5.9-1,7.6-1.4
	c60.7-15.9,121.5-31.7,182.1-48.1c12.5-3.4,22.3-2,33.6,4.7c121.9,72.7,253.3,96.6,392.2,68.2c293.7-60.2,482.2-337.8,431.9-633
	c-42.7-250.7-259.2-442.5-512.5-453.2c-140.1-5.9-266,34.2-374.4,123.5C549.5,635.1,481.9,767.5,472,927.7
	c-7.3,117.9,22.4,227.3,86.1,326.9c7.4,11.5,8.9,21.4,5.1,34.6C545.9,1349.4,529.7,1410,512.6,1472.5z"/>
<path d="M805,653.9c30-7.8,43.6,10.5,53.7,36.7c14.7,38.3,31,76.1,47.2,113.9c5.5,12.7,4.8,23.8-2.8,35.3
	c-12.4,18.4-25.8,36.1-40.2,53c-9,10.7-10.2,20.5-3,32.7c53.9,91.1,129.4,156.9,227.9,196.1c12.8,5.1,23.4,3.1,32.1-7.8
	c16.8-20.9,34.3-41.3,50.3-62.7c9.3-12.4,20-15.7,33.7-10c47.9,19.6,93.8,43.5,140,66.8c8.6,4.4,10.8,11.9,10.6,20.8
	c-2,70-22.3,103.8-97.6,135.3c-42.6,17.8-86.7,13.5-130.5,1.2c-158.6-44.2-275.5-143.9-369.2-275.3c-29.4-41.3-56-83.9-67.2-134
	c-15.9-71.5,1.7-133.5,54.4-185.1C761.1,654.6,781.2,650.7,805,653.9z"/>
</svg>
